<svg xmlns="http://www.w3.org/2000/svg" version="1.1" xmlns:xlink="http://www.w3.org/1999/xlink" width="128px" height="128px"><svg width="128px" height="128px" viewBox="-28.8 -28.8 249.60 249.60" xmlns="http://www.w3.org/2000/svg" fill="none">

<g id="SvgjsG1205" stroke-width="0">

<path transform="translate(-28.8, -28.8), scale(15.600000000000001)" fill="#f2ab2d" d="M9.166.33a2.25 2.25 0 00-2.332 0l-5.25 3.182A2.25 2.25 0 00.5 5.436v5.128a2.25 2.25 0 001.084 1.924l5.25 3.182a2.25 2.25 0 002.332 0l5.25-3.182a2.25 2.25 0 001.084-1.924V5.436a2.25 2.25 0 00-1.084-1.924L9.166.33z" strokewidth="0"></path>

</g>

<g id="SvgjsG1204" stroke-linecap="round" stroke-linejoin="round" stroke="#ec8f1e" stroke-width="9.984">

<path stroke="#fff" stroke-width="12" d="M80 105.485 48.284 73.769a4 4 0 0 0-5.657 0l-19.799 19.8a4 4 0 0 0 0 5.656L65.603 142"></path>

<rect width="36" height="132" x="147.279" y="37" stroke="#fff" stroke-linejoin="round" stroke-width="12" rx="4" transform="rotate(45 147.279 37)"></rect>

</g>

<g id="SvgjsG1203">

<path stroke="#fff" stroke-width="12" d="M80 105.485 48.284 73.769a4 4 0 0 0-5.657 0l-19.799 19.8a4 4 0 0 0 0 5.656L65.603 142"></path>

<rect width="36" height="132" x="147.279" y="37" stroke="#fff" stroke-linejoin="round" stroke-width="12" rx="4" transform="rotate(45 147.279 37)"></rect>

</g>

</svg><style>@media (prefers-color-scheme: light) { :root { filter: none; } }
@media (prefers-color-scheme: dark) { :root { filter: none; } }
</style></svg>